<?xml version="1.0" encoding="iso-8859-1"?>
<!-- Generator: Adobe Illustrator 16.0.0, SVG Export Plug-In . SVG Version: 6.00 Build 0)  -->
<!DOCTYPE svg PUBLIC "-//W3C//DTD SVG 1.1//EN" "http://www.w3.org/Graphics/SVG/1.1/DTD/svg11.dtd">
<svg version="1.1" id="Layer_1" xmlns="http://www.w3.org/2000/svg" xmlns:xlink="http://www.w3.org/1999/xlink" x="0px" y="0px"
	 width="400px" height="400px" viewBox="0 0 400 400" style="enable-background:new 0 0 400 400;" xml:space="preserve">
<g>
	<circle style="fill:#8778B2;" cx="201.815" cy="199.815" r="196.185"/>
	<g>
		<g>
			<defs>
				<circle id="SVGID_1_" cx="201.815" cy="199.815" r="196.185"/>
			</defs>
			<clipPath id="SVGID_2_">
				<use xlink:href="#SVGID_1_"  style="overflow:visible;"/>
			</clipPath>
			<g style="clip-path:url(#SVGID_2_);">
				<path style="fill:#E0DEDC;" d="M299.907,24.448c0-2.229-1.831-4.057-4.062-4.057H-10.43c-2.23,0-4.054,1.829-4.054,4.057
					v119.887c0,2.229,1.824,4.058,4.054,4.058h306.275c2.231,0,4.062-1.829,4.062-4.058V24.448z"/>
				<g>
					<g>
						<path style="fill:#FFFFFF;" d="M15.497,55.15c0,0.526-0.428,0.953-0.952,0.953H-0.014c-0.526,0-0.952-0.427-0.952-0.953
							V40.596c0-0.525,0.426-0.952,0.952-0.952h14.559c0.524,0,0.952,0.426,0.952,0.952V55.15z"/>
						<path style="fill:#FFFFFF;" d="M45.669,75.196c0,0.53-0.422,0.957-0.954,0.957H30.158c-0.524,0-0.947-0.427-0.947-0.957
							V60.637c0-0.516,0.423-0.947,0.947-0.947h14.558c0.532,0,0.954,0.432,0.954,0.947V75.196z"/>
						<path style="fill:#FFFFFF;" d="M50.417,95.247c0,0.525-0.428,0.947-0.952,0.947H34.905c-0.517,0-0.952-0.422-0.952-0.947
							V80.682c0-0.516,0.435-0.943,0.952-0.943h14.561c0.524,0,0.952,0.427,0.952,0.943V95.247z"/>
						<path style="fill:#FFFFFF;" d="M40.601,115.291c0,0.521-0.426,0.953-0.947,0.953H25.094c-0.52,0-0.949-0.432-0.949-0.953
							v-14.557c0-0.522,0.43-0.954,0.949-0.954h14.559c0.521,0,0.947,0.431,0.947,0.954V115.291z"/>
						<path style="fill:#FFFFFF;" d="M15.497,137.868c0,0.526-0.428,0.953-0.952,0.953H-0.014c-0.526,0-0.952-0.427-0.952-0.953
							v-17.091c0-0.516,0.426-0.952,0.952-0.952h14.559c0.524,0,0.952,0.436,0.952,0.952V137.868z"/>
						<path style="fill:#FFFFFF;" d="M35.484,137.868c0,0.526-0.426,0.953-0.953,0.953H19.979c-0.521,0-0.951-0.427-0.951-0.953
							v-17.091c0-0.516,0.429-0.952,0.951-0.952h14.553c0.527,0,0.953,0.436,0.953,0.952V137.868z"/>
						<path style="fill:#FFFFFF;" d="M55.481,137.868c0,0.526-0.429,0.953-0.953,0.953H39.969c-0.523,0-0.949-0.427-0.949-0.953
							v-17.091c0-0.516,0.426-0.952,0.949-0.952h14.559c0.524,0,0.953,0.436,0.953,0.952V137.868z"/>
						<path style="fill:#FFFFFF;" d="M226.249,137.868c0,0.526-0.435,0.953-0.957,0.953H210.73c-0.519,0-0.946-0.427-0.946-0.953
							v-17.091c0-0.516,0.428-0.952,0.946-0.952h14.562c0.522,0,0.957,0.436,0.957,0.952V137.868z"/>
						<path style="fill:#FFFFFF;" d="M246.288,137.868c0,0.526-0.427,0.953-0.95,0.953h-14.55c-0.532,0-0.963-0.427-0.963-0.953
							v-7.594c0-0.521,0.431-0.953,0.963-0.953h14.55c0.523,0,0.95,0.432,0.95,0.953V137.868z"/>
						<path style="fill:#FFFFFF;" d="M286.381,137.868c0,0.526-0.429,0.953-0.952,0.953h-14.555c-0.523,0-0.957-0.427-0.957-0.953
							v-7.594c0-0.521,0.434-0.953,0.957-0.953h14.555c0.523,0,0.952,0.432,0.952,0.953V137.868z"/>
						<path style="fill:#FFFFFF;" d="M80.692,137.868c0,0.526-0.427,0.953-0.944,0.953H59.961c-0.523,0-0.947-0.427-0.947-0.953
							v-17.091c0-0.516,0.424-0.952,0.947-0.952h19.787c0.517,0,0.944,0.436,0.944,0.952V137.868z"/>
						<path style="fill:#FFFFFF;" d="M206.197,137.868c0,0.526-0.424,0.953-0.952,0.953h-19.781c-0.518,0-0.955-0.427-0.955-0.953
							v-17.091c0-0.516,0.437-0.952,0.955-0.952h19.781c0.528,0,0.952,0.436,0.952,0.952V137.868z"/>
						<path style="fill:#FFFFFF;" d="M180.93,137.868c0,0.526-0.431,0.953-0.958,0.953H85.231c-0.517,0-0.955-0.427-0.955-0.953
							v-17.091c0-0.516,0.438-0.952,0.955-0.952h94.741c0.527,0,0.958,0.436,0.958,0.952V137.868z"/>
						<path style="fill:#FFFFFF;" d="M60.646,115.291c0,0.521-0.423,0.953-0.947,0.953h-14.56c-0.516,0-0.947-0.432-0.947-0.953
							v-14.557c0-0.522,0.432-0.954,0.947-0.954h14.56c0.524,0,0.947,0.431,0.947,0.954V115.291z"/>
						<path style="fill:#FFFFFF;" d="M80.692,115.291c0,0.521-0.427,0.953-0.944,0.953H65.189c-0.524,0-0.952-0.432-0.952-0.953
							v-14.557c0-0.522,0.428-0.954,0.952-0.954h14.559c0.517,0,0.944,0.431,0.944,0.954V115.291z"/>
						<path style="fill:#FFFFFF;" d="M100.742,115.291c0,0.521-0.426,0.953-0.953,0.953H85.231c-0.517,0-0.955-0.432-0.955-0.953
							v-14.557c0-0.522,0.438-0.954,0.955-0.954h14.558c0.527,0,0.953,0.431,0.953,0.954V115.291z"/>
						<path style="fill:#FFFFFF;" d="M120.786,115.291c0,0.521-0.431,0.953-0.947,0.953h-14.556c-0.523,0-0.955-0.432-0.955-0.953
							v-14.557c0-0.522,0.432-0.954,0.955-0.954h14.556c0.516,0,0.947,0.431,0.947,0.954V115.291z"/>
						<path style="fill:#FFFFFF;" d="M140.834,115.291c0,0.521-0.427,0.953-0.947,0.953h-14.561c-0.52,0-0.947-0.432-0.947-0.953
							v-14.557c0-0.522,0.428-0.954,0.947-0.954h14.561c0.52,0,0.947,0.431,0.947,0.954V115.291z"/>
						<path style="fill:#FFFFFF;" d="M160.881,115.291c0,0.521-0.424,0.953-0.948,0.953h-14.561c-0.525,0-0.953-0.432-0.953-0.953
							v-14.557c0-0.522,0.428-0.954,0.953-0.954h14.561c0.524,0,0.948,0.431,0.948,0.954V115.291z"/>
						<path style="fill:#FFFFFF;" d="M180.93,115.291c0,0.521-0.431,0.953-0.958,0.953h-14.555c-0.521,0-0.947-0.432-0.947-0.953
							v-14.557c0-0.522,0.426-0.954,0.947-0.954h14.555c0.527,0,0.958,0.431,0.958,0.954V115.291z"/>
						<path style="fill:#FFFFFF;" d="M200.976,115.291c0,0.521-0.429,0.953-0.953,0.953h-14.558c-0.518,0-0.955-0.432-0.955-0.953
							v-14.557c0-0.522,0.437-0.954,0.955-0.954h14.558c0.524,0,0.953,0.431,0.953,0.954V115.291z"/>
						<path style="fill:#FFFFFF;" d="M221.02,115.291c0,0.521-0.421,0.953-0.948,0.953h-14.559c-0.528,0-0.953-0.432-0.953-0.953
							v-14.557c0-0.522,0.425-0.954,0.953-0.954h14.559c0.527,0,0.948,0.431,0.948,0.954V115.291z"/>
						<path style="fill:#FFFFFF;" d="M241.066,115.291c0,0.521-0.43,0.953-0.952,0.953H225.56c-0.525,0-0.955-0.432-0.955-0.953
							v-14.557c0-0.522,0.43-0.954,0.955-0.954h14.555c0.522,0,0.952,0.431,0.952,0.954V115.291z"/>
						<path style="fill:#FFFFFF;" d="M286.221,115.291c0,0.521-0.428,0.953-0.95,0.953h-39.666c-0.524,0-0.951-0.432-0.951-0.953
							v-14.557c0-0.522,0.427-0.954,0.951-0.954h39.666c0.522,0,0.95,0.431,0.95,0.954V115.291z"/>
						<path style="fill:#FFFFFF;" d="M70.458,95.247c0,0.525-0.418,0.947-0.943,0.947H54.948c-0.517,0-0.944-0.422-0.944-0.947
							V80.682c0-0.516,0.428-0.943,0.944-0.943h14.566c0.524,0,0.943,0.427,0.943,0.943V95.247z"/>
						<path style="fill:#FFFFFF;" d="M90.508,95.247c0,0.525-0.427,0.947-0.952,0.947H74.996c-0.519,0-0.942-0.422-0.942-0.947
							V80.682c0-0.516,0.423-0.943,0.942-0.943h14.561c0.524,0,0.952,0.427,0.952,0.943V95.247z"/>
						<path style="fill:#FFFFFF;" d="M110.55,95.247c0,0.525-0.419,0.947-0.944,0.947H95.043c-0.523,0-0.947-0.422-0.947-0.947
							V80.682c0-0.516,0.424-0.943,0.947-0.943h14.562c0.525,0,0.944,0.427,0.944,0.943V95.247z"/>
						<path style="fill:#FFFFFF;" d="M130.6,95.247c0,0.525-0.429,0.947-0.947,0.947h-14.565c-0.52,0-0.944-0.422-0.944-0.947
							V80.682c0-0.516,0.425-0.943,0.944-0.943h14.565c0.519,0,0.947,0.427,0.947,0.943V95.247z"/>
						<path style="fill:#FFFFFF;" d="M150.648,95.247c0,0.525-0.431,0.947-0.951,0.947h-14.559c-0.517,0-0.955-0.422-0.955-0.947
							V80.682c0-0.516,0.438-0.943,0.955-0.943h14.559c0.52,0,0.951,0.427,0.951,0.943V95.247z"/>
						<path style="fill:#FFFFFF;" d="M170.691,95.247c0,0.525-0.428,0.947-0.949,0.947h-14.556c-0.525,0-0.951-0.422-0.951-0.947
							V80.682c0-0.516,0.426-0.943,0.951-0.943h14.556c0.521,0,0.949,0.427,0.949,0.943V95.247z"/>
						<path style="fill:#FFFFFF;" d="M190.736,95.247c0,0.525-0.423,0.947-0.948,0.947h-14.559c-0.522,0-0.947-0.422-0.947-0.947
							V80.682c0-0.516,0.424-0.943,0.947-0.943h14.559c0.524,0,0.948,0.427,0.948,0.943V95.247z"/>
						<path style="fill:#FFFFFF;" d="M210.786,95.247c0,0.525-0.432,0.947-0.948,0.947h-14.561c-0.523,0-0.95-0.422-0.95-0.947
							V80.682c0-0.516,0.427-0.943,0.95-0.943h14.561c0.517,0,0.948,0.427,0.948,0.943V95.247z"/>
						<path style="fill:#FFFFFF;" d="M230.834,95.247c0,0.525-0.43,0.947-0.95,0.947h-14.564c-0.525,0-0.946-0.422-0.946-0.947
							V80.682c0-0.516,0.421-0.943,0.946-0.943h14.564c0.521,0,0.95,0.427,0.95,0.943V95.247z"/>
						<path style="fill:#FFFFFF;" d="M250.875,95.247c0,0.525-0.426,0.947-0.947,0.947h-14.556c-0.527,0-0.955-0.422-0.955-0.947
							V80.682c0-0.516,0.428-0.943,0.955-0.943h14.556c0.521,0,0.947,0.427,0.947,0.943V95.247z"/>
						<path style="fill:#FFFFFF;" d="M270.921,95.247c0,0.525-0.426,0.947-0.946,0.947H255.41c-0.521,0-0.944-0.422-0.944-0.947
							V80.682c0-0.516,0.424-0.943,0.944-0.943h14.564c0.521,0,0.946,0.427,0.946,0.943V95.247z"/>
						<path style="fill:#FFFFFF;" d="M65.715,75.196c0,0.53-0.428,0.957-0.954,0.957H50.204c-0.521,0-0.953-0.427-0.953-0.957
							V60.637c0-0.516,0.432-0.947,0.953-0.947h14.558c0.526,0,0.954,0.432,0.954,0.947V75.196z"/>
						<path style="fill:#FFFFFF;" d="M85.761,75.196c0,0.53-0.427,0.957-0.953,0.957H70.249c-0.521,0-0.947-0.427-0.947-0.957
							V60.637c0-0.516,0.426-0.947,0.947-0.947h14.559c0.526,0,0.953,0.432,0.953,0.947V75.196z"/>
						<path style="fill:#FFFFFF;" d="M105.806,75.196c0,0.53-0.426,0.957-0.952,0.957H90.295c-0.517,0-0.942-0.427-0.942-0.957
							V60.637c0-0.516,0.426-0.947,0.942-0.947h14.559c0.526,0,0.952,0.432,0.952,0.947V75.196z"/>
						<path style="fill:#FFFFFF;" d="M125.848,75.196c0,0.53-0.428,0.957-0.945,0.957h-14.559c-0.524,0-0.951-0.427-0.951-0.957
							V60.637c0-0.516,0.427-0.947,0.951-0.947h14.559c0.517,0,0.945,0.432,0.945,0.947V75.196z"/>
						<path style="fill:#FFFFFF;" d="M145.897,75.196c0,0.53-0.425,0.957-0.952,0.957h-14.558c-0.521,0-0.946-0.427-0.946-0.957
							V60.637c0-0.516,0.424-0.947,0.946-0.947h14.558c0.527,0,0.952,0.432,0.952,0.947V75.196z"/>
						<path style="fill:#FFFFFF;" d="M165.939,75.196c0,0.53-0.42,0.957-0.944,0.957h-14.561c-0.524,0-0.952-0.427-0.952-0.957
							V60.637c0-0.516,0.428-0.947,0.952-0.947h14.561c0.524,0,0.944,0.432,0.944,0.947V75.196z"/>
						<path style="fill:#FFFFFF;" d="M185.988,75.196c0,0.53-0.42,0.957-0.948,0.957h-14.561c-0.519,0-0.945-0.427-0.945-0.957
							V60.637c0-0.516,0.426-0.947,0.945-0.947h14.561c0.528,0,0.948,0.432,0.948,0.947V75.196z"/>
						<path style="fill:#FFFFFF;" d="M206.038,75.196c0,0.53-0.428,0.957-0.953,0.957h-14.56c-0.522,0-0.95-0.427-0.95-0.957V60.637
							c0-0.516,0.428-0.947,0.95-0.947h14.56c0.525,0,0.953,0.432,0.953,0.947V75.196z"/>
						<path style="fill:#FFFFFF;" d="M226.079,75.196c0,0.53-0.428,0.957-0.943,0.957h-14.56c-0.526,0-0.95-0.427-0.95-0.957V60.637
							c0-0.516,0.424-0.947,0.95-0.947h14.56c0.516,0,0.943,0.432,0.943,0.947V75.196z"/>
						<path style="fill:#FFFFFF;" d="M246.13,75.196c0,0.53-0.428,0.957-0.954,0.957h-14.559c-0.515,0-0.946-0.427-0.946-0.957
							V60.637c0-0.516,0.432-0.947,0.946-0.947h14.559c0.526,0,0.954,0.432,0.954,0.947V75.196z"/>
						<path style="fill:#FFFFFF;" d="M266.175,75.196c0,0.53-0.428,0.957-0.948,0.957h-14.559c-0.525,0-0.952-0.427-0.952-0.957
							V60.637c0-0.516,0.427-0.947,0.952-0.947h14.559c0.521,0,0.948,0.432,0.948,0.947V75.196z"/>
						<path style="fill:#FFFFFF;" d="M25.623,75.196c0,0.53-0.425,0.957-0.951,0.957H-0.014c-0.526,0-0.952-0.427-0.952-0.957
							V60.637c0-0.516,0.426-0.947,0.952-0.947h24.686c0.526,0,0.951,0.432,0.951,0.947V75.196z"/>
						<path style="fill:#FFFFFF;" d="M286.221,55.15c0,0.526-0.428,0.953-0.95,0.953h-24.688c-0.516,0-0.947-0.427-0.947-0.953
							V40.596c0-0.525,0.432-0.952,0.947-0.952h24.688c0.522,0,0.95,0.426,0.95,0.952V55.15z"/>
						<path style="fill:#FFFFFF;" d="M30.367,95.247c0,0.525-0.423,0.947-0.952,0.947H-0.014c-0.526,0-0.952-0.422-0.952-0.947
							V80.682c0-0.516,0.426-0.943,0.952-0.943h29.429c0.529,0,0.952,0.427,0.952,0.943V95.247z"/>
						<path style="fill:#FFFFFF;" d="M20.561,115.291c0,0.521-0.427,0.953-0.952,0.953H-0.014c-0.526,0-0.952-0.432-0.952-0.953
							v-14.557c0-0.522,0.426-0.954,0.952-0.954h19.623c0.525,0,0.952,0.431,0.952,0.954V115.291z"/>
						<path style="fill:#FFFFFF;" d="M35.538,55.15c0,0.526-0.423,0.953-0.954,0.953h-14.55c-0.524,0-0.952-0.427-0.952-0.953
							V40.596c0-0.525,0.428-0.952,0.952-0.952h14.55c0.53,0,0.954,0.426,0.954,0.952V55.15z"/>
						<path style="fill:#FFFFFF;" d="M55.587,55.15c0,0.526-0.426,0.953-0.95,0.953H40.076c-0.52,0-0.944-0.427-0.944-0.953V40.596
							c0-0.525,0.424-0.952,0.944-0.952h14.561c0.524,0,0.95,0.426,0.95,0.952V55.15z"/>
						<path style="fill:#FFFFFF;" d="M75.639,55.15c0,0.526-0.437,0.953-0.959,0.953H60.121c-0.521,0-0.947-0.427-0.947-0.953
							V40.596c0-0.525,0.426-0.952,0.947-0.952H74.68c0.522,0,0.959,0.426,0.959,0.952V55.15z"/>
						<path style="fill:#FFFFFF;" d="M95.68,55.15c0,0.526-0.43,0.953-0.954,0.953H80.167c-0.521,0-0.952-0.427-0.952-0.953V40.596
							c0-0.525,0.431-0.952,0.952-0.952h14.559c0.524,0,0.954,0.426,0.954,0.952V55.15z"/>
						<path style="fill:#FFFFFF;" d="M115.718,55.15c0,0.526-0.42,0.953-0.946,0.953h-14.559c-0.521,0-0.949-0.427-0.949-0.953
							V40.596c0-0.525,0.428-0.952,0.949-0.952h14.559c0.526,0,0.946,0.426,0.946,0.952V55.15z"/>
						<path style="fill:#FFFFFF;" d="M135.771,55.15c0,0.526-0.429,0.953-0.953,0.953h-14.55c-0.527,0-0.954-0.427-0.954-0.953
							V40.596c0-0.525,0.426-0.952,0.954-0.952h14.55c0.524,0,0.953,0.426,0.953,0.952V55.15z"/>
						<path style="fill:#FFFFFF;" d="M155.81,55.15c0,0.526-0.417,0.953-0.944,0.953H140.31c-0.528,0-0.954-0.427-0.954-0.953
							V40.596c0-0.525,0.426-0.952,0.954-0.952h14.556c0.527,0,0.944,0.426,0.944,0.952V55.15z"/>
						<path style="fill:#FFFFFF;" d="M175.86,55.15c0,0.526-0.425,0.953-0.954,0.953h-14.558c-0.524,0-0.95-0.427-0.95-0.953V40.596
							c0-0.525,0.426-0.952,0.95-0.952h14.558c0.528,0,0.954,0.426,0.954,0.952V55.15z"/>
						<path style="fill:#FFFFFF;" d="M195.902,55.15c0,0.526-0.421,0.953-0.942,0.953H180.4c-0.527,0-0.952-0.427-0.952-0.953
							V40.596c0-0.525,0.425-0.952,0.952-0.952h14.56c0.521,0,0.942,0.426,0.942,0.952V55.15z"/>
						<path style="fill:#FFFFFF;" d="M215.956,55.15c0,0.526-0.431,0.953-0.947,0.953h-14.565c-0.518,0-0.946-0.427-0.946-0.953
							V40.596c0-0.525,0.428-0.952,0.946-0.952h14.565c0.517,0,0.947,0.426,0.947,0.952V55.15z"/>
						<path style="fill:#FFFFFF;" d="M236.002,55.15c0,0.526-0.426,0.953-0.951,0.953h-14.56c-0.525,0-0.954-0.427-0.954-0.953
							V40.596c0-0.525,0.429-0.952,0.954-0.952h14.56c0.525,0,0.951,0.426,0.951,0.952V55.15z"/>
						<path style="fill:#FFFFFF;" d="M256.043,55.15c0,0.526-0.423,0.953-0.943,0.953h-14.566c-0.519,0-0.945-0.427-0.945-0.953
							V40.596c0-0.525,0.427-0.952,0.945-0.952H255.1c0.521,0,0.943,0.426,0.943,0.952V55.15z"/>
						<g>
							<path style="fill:#FFFFFF;" d="M249.876,129.859v8.009c0,0.247,0.093,0.495,0.274,0.673c0.188,0.187,0.436,0.279,0.676,0.279
								h14.561c0.241,0,0.479-0.092,0.67-0.279c0.186-0.179,0.278-0.427,0.278-0.673v-8.009H249.876z"/>
							<path style="fill:#FFFFFF;" d="M266.335,128.787v-8.01c0-0.24-0.093-0.483-0.278-0.666c-0.19-0.188-0.429-0.286-0.67-0.286
								h-14.561c-0.24,0-0.487,0.098-0.676,0.286c-0.182,0.183-0.274,0.426-0.274,0.666v8.01H266.335z"/>
						</g>
						<path style="fill:#FFFFFF;" d="M270.71,59.689c-0.241,0-0.48,0.088-0.67,0.28c-0.186,0.183-0.272,0.422-0.272,0.667v14.559
							c0,0.245,0.087,0.491,0.272,0.677c0.189,0.183,0.429,0.28,0.67,0.28h3.8v19.094c0,0.245,0.097,0.489,0.28,0.671
							c0.188,0.187,0.427,0.276,0.672,0.276h9.809c0.245,0,0.486-0.089,0.674-0.276c0.188-0.182,0.281-0.426,0.281-0.671v-34.61
							c0-0.245-0.094-0.484-0.281-0.667c-0.188-0.192-0.429-0.28-0.674-0.28H270.71z"/>
					</g>
				</g>
			</g>
		</g>
		<g>
			<path style="fill:#FFFFFF;" d="M386.073,174.849c0,10.483-8.579,19.062-19.063,19.062h-13.861
				c-10.483,0-19.062-8.578-19.062-19.062v-54.537c0-10.484,8.578-19.061,19.062-19.061h13.861c10.484,0,19.063,8.577,19.063,19.061
				V174.849z"/>
			<path style="fill:#F7F8F8;" d="M367.01,193.91c10.484,0,19.063-8.578,19.063-19.062v-54.537c0-10.484-8.579-19.061-19.063-19.061
				h-6.931v92.66H367.01z"/>
			<rect x="359.562" y="101.25" style="fill:#D4D2CF;" width="1.036" height="16.38"/>
			<circle style="fill:#48505A;" cx="360.08" cy="121.177" r="4.332"/>
		</g>
		<g>
			<path style="fill:#C7E8EC;" d="M144.585,247.549c0,28.758-23.316,52.072-52.074,52.072c-28.762,0-52.076-23.314-52.076-52.072
				c0-28.762,23.314-52.076,52.076-52.076C121.269,195.473,144.585,218.787,144.585,247.549z"/>
			<path style="fill:#FFFFFF;" d="M146.257,262.217c-0.382,1.389-1.292,2.637-2.641,3.406c-1.347,0.768-2.883,0.921-4.273,0.541
				l-16.294-4.446l2.966-10.862l16.292,4.446c1.391,0.38,2.637,1.294,3.408,2.642C146.485,259.29,146.635,260.824,146.257,262.217z"
				/>
			<path style="fill:#E0DEDC;" d="M126.015,250.855l-2.966,10.862l6.074,1.658c1.476-3.402,2.485-7.05,2.961-10.864L126.015,250.855
				z"/>
			<path style="fill:#FFFFFF;" d="M127.696,247.549c0,19.432-15.753,35.183-35.185,35.183c-19.435,0-35.186-15.751-35.186-35.183
				c0-19.434,15.751-35.188,35.186-35.188C111.942,212.361,127.696,228.115,127.696,247.549z"/>
			<path style="fill:#F7987A;" d="M122.066,247.549c0,16.322-13.233,29.556-29.555,29.556c-16.325,0-29.558-13.233-29.558-29.556
				c0-16.326,13.233-29.558,29.558-29.558C108.833,217.991,122.066,231.223,122.066,247.549z"/>
			<path style="fill:#F2734E;" d="M71.398,255.993c0-16.325,13.233-29.557,29.556-29.557c6.002,0,11.583,1.794,16.244,4.866
				c-5.286-8.016-14.367-13.312-24.687-13.312c-16.325,0-29.558,13.231-29.558,29.558c0,10.322,5.295,19.401,13.313,24.688
				C73.193,267.576,71.398,261.994,71.398,255.993z"/>
			<g>
				<polygon style="fill:#E0DEDC;" points="96.317,212.262 86.229,205.504 86.229,202.97 92.987,195.416 103.073,199.641 
					103.073,202.174 				"/>
				
					<rect x="88.58" y="195.235" transform="matrix(0.8308 0.5566 -0.5566 0.8308 128.0664 -18.618)" style="fill:#FFFFFF;" width="12.143" height="12.141"/>
			</g>
			<g>
				<polygon style="fill:#E0DEDC;" points="109.774,215.415 106.85,203.632 106.85,201.943 118.633,200.707 121.559,210.802 
					121.559,212.49 				"/>
				
					<rect x="108.133" y="200.301" transform="matrix(0.2409 0.9706 -0.9706 0.2409 286.9907 45.822)" style="fill:#FFFFFF;" width="12.141" height="12.141"/>
			</g>
		</g>
		<g>
			<polygon style="fill:#36404A;" points="96.925,334.439 76.386,334.439 76.386,342.727 79.186,342.727 79.186,345.525 
				76.386,348.327 76.386,357.9 79.186,360.702 79.186,363.502 76.386,363.502 76.386,371.789 96.925,371.789 			"/>
			<rect x="95.431" y="334.439" style="fill:#48505A;" width="1.495" height="37.35"/>
			<path style="fill:#FFFFFF;" d="M76.386,342.727l0.391-1.634l30.137,7.195c0.977,0.234,1.963,0.244,2.945,0.035
				c0.981-0.212,1.876-0.631,2.668-1.244l6.433-4.99c0.095-0.067,0.184-0.135,0.279-0.192c0.105-0.068,0.226-0.136,0.341-0.198
				c0.56-0.29,1.117-0.432,1.688-0.432c3.438,0,6.132,5.203,6.132,11.847s-2.694,11.848-6.132,11.848
				c-0.567,0-1.128-0.143-1.666-0.421c-0.13-0.069-0.254-0.138-0.371-0.212c-0.087-0.055-0.181-0.123-0.277-0.194l-6.426-4.982
				c-0.792-0.613-1.688-1.03-2.666-1.243c-0.981-0.21-1.971-0.197-2.946,0.035l-30.139,7.193l-0.391-1.635l30.139-7.192
				c1.219-0.293,2.462-0.309,3.688-0.043c1.228,0.262,2.353,0.786,3.344,1.557l6.403,4.965c0.05,0.035,0.115,0.084,0.18,0.127
				c0.085,0.056,0.168,0.097,0.244,0.138c0.292,0.152,0.583,0.228,0.884,0.228c2.106,0,4.45-4.175,4.45-10.167
				c0-5.99-2.344-10.166-4.45-10.166c-0.302,0-0.592,0.076-0.891,0.231c-0.073,0.04-0.153,0.081-0.227,0.127
				c-0.075,0.05-0.139,0.097-0.202,0.145l-6.389,4.957c-0.993,0.77-2.119,1.293-3.347,1.559c-1.226,0.263-2.471,0.249-3.689-0.045
				L76.386,342.727z"/>
			<g>
				<g>
					<polygon style="fill:#48505A;" points="79.186,339.925 79.186,334.439 76.386,334.439 76.386,342.727 					"/>
					<polygon style="fill:#48505A;" points="79.186,366.303 76.386,363.502 76.386,371.789 79.186,371.789 					"/>
					<polygon style="fill:#48505A;" points="79.186,355.099 79.186,351.129 76.386,348.327 76.386,357.9 					"/>
				</g>
			</g>
		</g>
		<g>
			<path style="fill:#F7987A;" d="M2.213,160.062v25.545h226.256v-25.545H2.213z M8.165,177.214c-1.412,0-2.554-1.144-2.554-2.555
				c0-1.409,1.143-2.553,2.554-2.553c1.408,0,2.556,1.144,2.556,2.553C10.721,176.071,9.572,177.214,8.165,177.214z"/>
			<rect x="2.213" y="160.062" style="fill:#F58664;" width="226.256" height="7.298"/>
			<rect x="2.213" y="181.958" style="fill:#F58664;" width="226.256" height="3.65"/>
			<g>
				<g>
					<g>
						<rect x="5.61" y="160.062" style="fill:#36404A;" width="0.511" height="4.403"/>
						<rect x="12.908" y="160.062" style="fill:#36404A;" width="0.511" height="4.403"/>
						<rect x="20.208" y="160.061" style="fill:#36404A;" width="0.509" height="4.404"/>
						<rect x="27.506" y="160.062" style="fill:#36404A;" width="0.511" height="4.403"/>
						<rect x="34.804" y="160.062" style="fill:#36404A;" width="0.512" height="4.403"/>
						<rect x="42.103" y="160.062" style="fill:#36404A;" width="0.51" height="4.403"/>
						<rect x="49.401" y="160.062" style="fill:#36404A;" width="0.512" height="4.403"/>
						<rect x="56.7" y="160.062" style="fill:#36404A;" width="0.509" height="4.403"/>
						<rect x="63.999" y="160.062" style="fill:#36404A;" width="0.512" height="4.403"/>
						<rect x="71.297" y="160.062" style="fill:#36404A;" width="0.511" height="4.403"/>
						<rect x="78.596" y="160.061" style="fill:#36404A;" width="0.51" height="4.404"/>
						<rect x="85.893" y="160.062" style="fill:#36404A;" width="0.51" height="4.403"/>
						<rect x="93.188" y="160.062" style="fill:#36404A;" width="0.514" height="4.403"/>
						<rect x="100.492" y="160.062" style="fill:#36404A;" width="0.51" height="4.403"/>
						<rect x="107.788" y="160.062" style="fill:#36404A;" width="0.512" height="4.403"/>
						<rect x="115.088" y="160.062" style="fill:#36404A;" width="0.512" height="4.403"/>
						<rect x="122.387" y="160.062" style="fill:#36404A;" width="0.508" height="4.403"/>
						<rect x="129.684" y="160.062" style="fill:#36404A;" width="0.511" height="4.403"/>
						<rect x="136.984" y="160.062" style="fill:#36404A;" width="0.51" height="4.403"/>
						<rect x="144.283" y="160.062" style="fill:#36404A;" width="0.509" height="4.403"/>
						<rect x="151.581" y="160.062" style="fill:#36404A;" width="0.51" height="4.403"/>
						<rect x="158.877" y="160.062" style="fill:#36404A;" width="0.513" height="4.403"/>
						<rect x="166.175" y="160.062" style="fill:#36404A;" width="0.512" height="4.403"/>
						<rect x="173.478" y="160.062" style="fill:#36404A;" width="0.51" height="4.403"/>
						<rect x="180.775" y="160.062" style="fill:#36404A;" width="0.51" height="4.403"/>
						<rect x="188.073" y="160.062" style="fill:#36404A;" width="0.512" height="4.403"/>
						<rect x="195.372" y="160.062" style="fill:#36404A;" width="0.509" height="4.403"/>
						<rect x="202.668" y="160.062" style="fill:#36404A;" width="0.512" height="4.403"/>
						<rect x="209.966" y="160.062" style="fill:#36404A;" width="0.509" height="4.403"/>
						<rect x="217.265" y="160.062" style="fill:#36404A;" width="0.514" height="4.403"/>
						<rect x="224.566" y="160.062" style="fill:#36404A;" width="0.507" height="4.403"/>
					</g>
					<g>
						<rect x="9.366" y="160.062" style="fill:#36404A;" width="0.292" height="2.201"/>
						<rect x="16.667" y="160.062" style="fill:#36404A;" width="0.292" height="2.201"/>
						<rect x="23.963" y="160.062" style="fill:#36404A;" width="0.294" height="2.199"/>
						<rect x="31.263" y="160.062" style="fill:#36404A;" width="0.293" height="2.201"/>
						<rect x="38.562" y="160.062" style="fill:#36404A;" width="0.292" height="2.201"/>
						<rect x="45.86" y="160.062" style="fill:#36404A;" width="0.292" height="2.201"/>
						<rect x="53.159" y="160.061" style="fill:#36404A;" width="0.294" height="2.203"/>
						<rect x="60.458" y="160.062" style="fill:#36404A;" width="0.291" height="2.201"/>
						<rect x="67.757" y="160.062" style="fill:#36404A;" width="0.293" height="2.201"/>
						<rect x="75.057" y="160.062" style="fill:#36404A;" width="0.29" height="2.201"/>
						<rect x="82.353" y="160.061" style="fill:#36404A;" width="0.292" height="2.203"/>
						<rect x="89.651" y="160.062" style="fill:#36404A;" width="0.295" height="2.201"/>
						<rect x="96.948" y="160.062" style="fill:#36404A;" width="0.296" height="2.201"/>
						<rect x="104.25" y="160.062" style="fill:#36404A;" width="0.292" height="2.201"/>
						<rect x="111.549" y="160.062" style="fill:#36404A;" width="0.292" height="2.201"/>
						<rect x="118.844" y="160.062" style="fill:#36404A;" width="0.293" height="2.201"/>
						<rect x="126.143" y="160.062" style="fill:#36404A;" width="0.296" height="2.201"/>
						<rect x="133.441" y="160.062" style="fill:#36404A;" width="0.293" height="2.201"/>
						<rect x="140.741" y="160.062" style="fill:#36404A;" width="0.293" height="2.201"/>
						<rect x="148.04" y="160.062" style="fill:#36404A;" width="0.291" height="2.201"/>
						<rect x="155.336" y="160.062" style="fill:#36404A;" width="0.294" height="2.201"/>
						<rect x="162.638" y="160.062" style="fill:#36404A;" width="0.29" height="2.201"/>
						<rect x="169.933" y="160.062" style="fill:#36404A;" width="0.295" height="2.201"/>
						<rect x="177.233" y="160.062" style="fill:#36404A;" width="0.293" height="2.201"/>
						<rect x="184.532" y="160.062" style="fill:#36404A;" width="0.293" height="2.201"/>
						<rect x="191.83" y="160.062" style="fill:#36404A;" width="0.293" height="2.201"/>
						<rect x="199.129" y="160.062" style="fill:#36404A;" width="0.292" height="2.201"/>
						<rect x="206.428" y="160.062" style="fill:#36404A;" width="0.294" height="2.201"/>
						<rect x="213.726" y="160.062" style="fill:#36404A;" width="0.294" height="2.201"/>
						<rect x="221.025" y="160.062" style="fill:#36404A;" width="0.292" height="2.201"/>
					</g>
				</g>
			</g>
		</g>
		<g>
			<rect x="342.398" y="279.831" style="fill:#48505A;" width="5.063" height="98.435"/>
			<path style="fill:#FFFFFF;" d="M347.462,381.219c0,0.377-0.146,0.756-0.433,1.044c-0.288,0.288-0.667,0.433-1.044,0.433h-7.173
				c-0.378,0-0.756-0.145-1.045-0.433c-0.288-0.288-0.434-0.667-0.434-1.044v-2.955h10.128V381.219z"/>
			<rect x="337.334" y="279.83" style="fill:#36404A;" width="5.064" height="98.435"/>
			<rect x="342.397" y="371.398" style="fill:#F7987A;" width="5.065" height="1.552"/>
			<rect x="337.336" y="371.398" style="fill:#F2734E;" width="5.061" height="1.548"/>
			<polygon style="fill:#FFFFFF;" points="342.398,257.046 342.398,279.83 347.462,279.831 			"/>
			<polygon style="fill:#E0DEDC;" points="342.398,257.046 342.398,279.83 337.334,279.83 			"/>
			<polygon style="fill:#36404A;" points="342.398,264.305 342.398,257.046 340.789,264.302 			"/>
			<polygon style="fill:#48505A;" points="344.014,264.302 342.398,257.046 342.398,264.305 			"/>
			<path style="fill:#E0DEDC;" d="M344.479,362.431l-0.003,0.938h-4.144l-0.001-0.938l1.737,0.003v-1.538l-1.737-0.005l0.001-0.939
				h4.145v0.939h-1.592v1.54H344.479z M341.542,367.262c-0.376,0.005-0.67-0.172-0.878-0.433c-0.238-0.3-0.373-0.803-0.375-1.627
				c0.002-0.46,0.033-0.802,0.061-1.015h4.07c0.052,0.248,0.089,0.741,0.089,1.211c0,0.573-0.051,0.926-0.234,1.227
				c-0.151,0.291-0.438,0.498-0.811,0.498c-0.37,0-0.712-0.214-0.888-0.683h-0.009C342.437,366.916,342.081,367.267,341.542,367.262
				z M342.836,365.116v0.31c0,0.491,0.203,0.758,0.51,0.758c0.312,0,0.477-0.243,0.478-0.668c0-0.203-0.009-0.316-0.022-0.399
				H342.836z M341.579,366.275c0.42,0.002,0.585-0.373,0.585-0.84v-0.319l-1.165,0.003c-0.013,0.089-0.016,0.202-0.013,0.36
				C340.986,365.906,341.143,366.275,341.579,366.275z"/>
			<path style="fill:#FFFFFF;" d="M344.476,363.369h-2.077v-3.424l2.078,0.006v0.939h-1.592v1.54h1.594L344.476,363.369z
				 M344.42,364.188c0.052,0.248,0.089,0.741,0.089,1.211c0,0.573-0.051,0.926-0.234,1.227c-0.151,0.291-0.438,0.498-0.811,0.498
				c-0.37,0-0.712-0.214-0.888-0.683h-0.009c-0.032,0.11-0.117,0.178-0.169,0.272v-2.529L344.42,364.188z M343.823,365.516
				c0-0.203-0.009-0.316-0.022-0.399h-0.965v0.31c0,0.491,0.203,0.758,0.51,0.758C343.658,366.184,343.822,365.94,343.823,365.516z"
				/>
		</g>
		<g>
			<path style="fill:#48505A;" d="M171.34,201.26c-2.591,0-4.709,2.119-4.709,4.709v185.322c0,2.59,2.118,4.709,4.709,4.709h128.279
				c2.591,0,4.709-2.119,4.709-4.709V205.969c0-2.59-2.118-4.709-4.709-4.709H171.34z"/>
			<rect x="176.038" y="214.566" style="fill:#FFFFFF;" width="118.88" height="168.129"/>
			<g>
				<rect x="191.163" y="325.565" style="fill:#F58664;" width="42.015" height="12.707"/>
				<rect x="237.778" y="325.565" style="fill:#D4D2CF;" width="42.015" height="12.707"/>
				<g>
					<rect x="191.163" y="346.531" style="fill:#48505A;" width="88.63" height="2.633"/>
					<rect x="191.163" y="353.116" style="fill:#D4D2CF;" width="88.63" height="2.633"/>
					<rect x="191.163" y="359.699" style="fill:#D4D2CF;" width="44.317" height="2.634"/>
				</g>
			</g>
			<g>
				<g>
					<g>
						<rect x="214.84" y="244.795" style="fill:#D4D2CF;" width="64.615" height="2.916"/>
						<rect x="214.84" y="264.268" style="fill:#D4D2CF;" width="64.615" height="2.916"/>
						<rect x="214.84" y="283.739" style="fill:#D4D2CF;" width="64.615" height="2.915"/>
						<rect x="214.84" y="303.207" style="fill:#D4D2CF;" width="64.615" height="2.916"/>
					</g>
				</g>
				<g>
					<g>
						<path style="fill:#D4D2CF;" d="M199.347,254.1c-4.328,0-7.847-3.52-7.847-7.847s3.519-7.848,7.847-7.848
							c4.326,0,7.848,3.521,7.848,7.848S203.673,254.1,199.347,254.1z M199.347,239.975c-3.463,0-6.277,2.817-6.277,6.278
							c0,3.46,2.814,6.278,6.277,6.278c3.461,0,6.278-2.818,6.278-6.278C205.625,242.792,202.809,239.975,199.347,239.975z"/>
						<path style="fill:#D4D2CF;" d="M199.347,273.574c-4.328,0-7.847-3.521-7.847-7.847c0-4.329,3.519-7.848,7.847-7.848
							c4.326,0,7.848,3.519,7.848,7.848C207.195,270.053,203.673,273.574,199.347,273.574z M199.347,259.449
							c-3.463,0-6.277,2.815-6.277,6.278c0,3.461,2.814,6.277,6.277,6.277c3.461,0,6.278-2.816,6.278-6.277
							C205.625,262.265,202.809,259.449,199.347,259.449z"/>
						<path style="fill:#D4D2CF;" d="M199.347,293.047c-4.328,0-7.847-3.52-7.847-7.846c0-4.328,3.519-7.849,7.847-7.849
							c4.326,0,7.848,3.521,7.848,7.849C207.195,289.527,203.673,293.047,199.347,293.047z M199.347,278.922
							c-3.463,0-6.277,2.816-6.277,6.279c0,3.461,2.814,6.277,6.277,6.277c3.461,0,6.278-2.816,6.278-6.277
							C205.625,281.738,202.809,278.922,199.347,278.922z"/>
						<path style="fill:#D4D2CF;" d="M199.347,312.521c-4.328,0-7.847-3.52-7.847-7.848c0-4.325,3.519-7.848,7.847-7.848
							c4.326,0,7.848,3.522,7.848,7.848C207.195,309.001,203.673,312.521,199.347,312.521z M199.347,298.396
							c-3.463,0-6.277,2.817-6.277,6.277c0,3.463,2.814,6.277,6.277,6.277c3.461,0,6.278-2.814,6.278-6.277
							C205.625,301.213,202.809,298.396,199.347,298.396z"/>
					</g>
				</g>
				<polygon style="fill:#F58664;" points="194.376,264.369 195.721,263.025 199.464,266.766 207.152,259.08 208.5,260.424 
					199.464,269.458 				"/>
			</g>
			<g>
				<path style="fill:#E0DEDC;" d="M245.662,204.109c0-5.627-4.556-10.199-10.183-10.199s-10.183,4.572-10.183,10.199h-12.894
					v20.914h46.152v-20.914H245.662z M235.479,200.646c1.908,0,3.47,1.55,3.47,3.464c0,1.904-1.562,3.45-3.47,3.45
					c-1.917,0-3.467-1.546-3.467-3.45C232.013,202.195,233.562,200.646,235.479,200.646z"/>
				<path style="fill:#D4D2CF;" d="M245.662,204.109c0-5.627-4.556-10.199-10.183-10.199s-10.183,4.572-10.183,10.199h-12.894
					v10.457h46.152v-10.457H245.662z M235.479,200.646c1.908,0,3.47,1.55,3.47,3.464c0,1.904-1.562,3.45-3.47,3.45
					c-1.917,0-3.467-1.546-3.467-3.45C232.013,202.195,233.562,200.646,235.479,200.646z"/>
				<rect x="212.403" y="212.385" style="fill:#FFFFFF;" width="46.152" height="2.182"/>
				<rect x="212.403" y="214.566" style="fill:#D4D2CF;" width="46.152" height="2.184"/>
			</g>
		</g>
	</g>
</g>
</svg>
