<?xml version="1.0" encoding="utf-8"?>
<!-- Generator: Adobe Illustrator 16.0.0, SVG Export Plug-In . SVG Version: 6.00 Build 0)  -->
<!DOCTYPE svg PUBLIC "-//W3C//DTD SVG 1.1//EN" "http://www.w3.org/Graphics/SVG/1.1/DTD/svg11.dtd">
<svg version="1.1" id="Layer_1" xmlns="http://www.w3.org/2000/svg" xmlns:xlink="http://www.w3.org/1999/xlink" x="0px" y="0px"
	 width="400px" height="74px" viewBox="0 0 400 74" enable-background="new 0 0 400 74" xml:space="preserve">
<g>
	<g>
		<path fill="#71619A" d="M22.489,46.985c0,3.63-0.719,7.092-3.252,9.286c-2.364,2.024-5.529,2.573-8.738,2.573
			c-2.868,0-5.783-0.549-7.721-1.562l1.431-5.738c1.27,0.715,3.63,1.518,5.996,1.518c2.701,0,4.814-1.478,4.814-4.687V47.45h-0.087
			c-1.264,1.561-3.123,2.323-5.191,2.323C4.677,49.773,1,45.722,1,39.686c0-6.545,4.225-10.891,9.416-10.891
			c2.533,0,4.265,0.97,5.358,2.701h0.087l0.254-2.239h6.541c-0.083,1.307-0.167,3.082-0.167,6.417V46.985z M14.889,37.823
			c0-0.337-0.041-0.672-0.084-0.969c-0.334-1.521-1.307-2.363-2.701-2.363c-1.815,0-3.376,1.771-3.376,5.064
			c0,2.704,1.267,4.687,3.376,4.687c1.394,0,2.407-0.926,2.661-2.069c0.124-0.421,0.124-1.096,0.124-1.558V37.823z"/>
		<path fill="#71619A" d="M27.166,36.262c0-3.289-0.043-5.275-0.174-7.006h6.504l0.294,3.757h0.167
			c1.1-3.166,3.717-4.218,5.529-4.218c0.678,0,0.976,0,1.524,0.121v7.139c-0.548-0.126-1.144-0.214-1.942-0.214
			c-2.236,0-3.76,0.929-4.181,2.618c-0.041,0.337-0.084,0.805-0.084,1.307v10.258h-7.638V36.262z"/>
		<path fill="#71619A" d="M62.025,44.959c0,2.066,0.127,4.012,0.337,5.064h-6.835l-0.381-1.815h-0.171
			c-1.434,1.648-3.502,2.28-5.739,2.28c-4.262,0-6.882-3.082-6.882-6.542c0-5.571,5.024-8.065,12.074-8.065v-0.167
			c0-0.843-0.635-1.772-3.419-1.772c-2.196,0-4.476,0.759-5.866,1.518l-1.31-4.766c1.31-0.723,4.305-1.899,8.61-1.899
			c7.137,0,9.583,3.964,9.583,9.159V44.959z M54.682,40.527c-3.122,0-4.854,0.843-4.854,2.701c0,1.31,0.842,1.985,2.153,1.985
			c1.096,0,2.236-0.763,2.614-1.945c0.087-0.294,0.087-0.676,0.087-1.054V40.527z"/>
		<path fill="#71619A" d="M66.745,36.349c0-2.788-0.083-5.151-0.17-7.093h6.544l0.334,2.66h0.087
			c1.561-2.069,3.884-3.122,6.751-3.122c4.306,0,8.531,3.837,8.531,10.589c0,7.602-4.94,11.104-9.456,11.104
			c-2.363,0-4.182-0.93-4.94-1.986h-0.084v9.881h-7.597V36.349z M74.342,40.948c0,0.465,0.043,0.89,0.127,1.267
			c0.294,1.351,1.438,2.491,2.955,2.491c2.28,0,3.67-1.942,3.67-4.94c0-2.952-1.176-5.021-3.586-5.021
			c-1.521,0-2.825,1.184-3.082,2.661c-0.084,0.293-0.084,0.627-0.084,0.969V40.948z"/>
		<path fill="#71619A" d="M92.439,20.054h7.641v11.395h0.083c0.679-0.842,1.521-1.478,2.45-1.938
			c0.929-0.464,2.066-0.715,3.165-0.715c4.687,0,7.304,3.329,7.304,9.199v12.03h-7.641V38.836c0-2.446-0.802-3.924-2.701-3.924
			c-1.434,0-2.113,0.842-2.49,1.648c-0.127,0.338-0.17,0.886-0.17,1.224v12.24h-7.641V20.054z"/>
		<path fill="#71619A" d="M122.613,29.256l1.18,7.641c0.34,2.069,0.722,4.432,1.016,6.879h0.086
			c0.375-2.447,0.969-4.854,1.391-6.839l1.645-7.681h5.953l1.601,7.387c0.468,2.323,1.016,4.686,1.354,7.133h0.084
			c0.254-2.447,0.635-4.854,1.056-7.217l1.223-7.303h7.427l-6.204,20.767h-7.173l-1.437-6.16c-0.421-1.945-0.716-3.678-1.14-6.334
			h-0.083c-0.294,2.656-0.635,4.476-1.056,6.247l-1.564,6.247h-7.173l-5.95-20.767H122.613z"/>
		<path fill="#71619A" d="M169.793,39.432c0,7.554-5.401,11.057-11.228,11.057c-6.207,0-11.017-3.924-11.017-10.68
			c0-6.628,4.349-11.014,11.438-11.014C165.488,28.795,169.793,33.18,169.793,39.432z M155.4,39.639
			c0,3.125,1.012,5.488,3.375,5.488c2.069,0,3.168-2.152,3.168-5.488c0-2.869-0.929-5.489-3.168-5.489
			C156.242,34.149,155.4,36.897,155.4,39.639z"/>
		<path fill="#71619A" d="M173.417,36.262c0-3.289-0.04-5.275-0.17-7.006h6.501l0.294,3.757h0.17c1.1-3.166,3.714-4.218,5.529-4.218
			c0.678,0,0.973,0,1.521,0.121v7.139c-0.548-0.126-1.14-0.214-1.942-0.214c-2.236,0-3.757,0.929-4.182,2.618
			c-0.04,0.337-0.083,0.805-0.083,1.307v10.258h-7.638V36.262z"/>
		<path fill="#71619A" d="M197.851,37.699h0.087c0.46-0.929,0.886-1.771,1.35-2.533l3.417-5.91h9.078l-7.176,8.36l8.232,12.407
			h-9.373l-4.098-7.936l-1.517,2.029v5.906h-7.598V20.054h7.598V37.699z"/>
		<path fill="#71619A" d="M214.684,43.649c1.184,0.723,3.884,1.564,5.742,1.564c1.645,0,2.28-0.342,2.28-1.144
			c0-0.755-0.465-1.096-2.701-1.771c-4.603-1.478-6.164-3.968-6.123-6.371c0-4.138,3.546-7.133,9.031-7.133
			c2.534,0,4.813,0.588,6.164,1.176l-1.224,5.151c-0.97-0.465-2.912-1.14-4.6-1.14c-1.31,0-2.066,0.341-2.066,1.184
			c0,0.675,0.673,1.096,3.123,1.898c4.095,1.351,5.655,3.463,5.698,6.458c0,3.971-3.084,6.966-9.499,6.966
			c-2.911,0-5.488-0.632-7.137-1.478L214.684,43.649z"/>
		<path fill="#71619A" d="M253.892,49.011c-1.437,0.716-4.178,1.437-7.684,1.437c-6.879,0-13.464-4.392-13.464-14.479
			c0-8.443,5.444-14.861,14.437-14.861c3.63,0,5.742,0.802,6.584,1.271l-0.634,1.685c-1.438-0.716-3.504-1.224-5.911-1.224
			c-7.681,0-12.367,4.984-12.367,13.17c0,7.728,4.39,12.708,12.033,12.708c2.403,0,4.767-0.509,6.414-1.311L253.892,49.011z"/>
		<path fill="#71619A" d="M258.611,35.841c0-2.025-0.047-4.094-0.17-6.076h1.858l0.083,4.091h0.127
			c0.886-2.531,2.996-4.56,5.743-4.56c0.294,0,0.588,0.047,0.843,0.087v1.942c-0.294-0.083-0.592-0.083-0.973-0.083
			c-2.785,0-4.771,2.407-5.319,5.656c-0.126,0.588-0.166,1.267-0.166,1.938v11.188h-2.026V35.841z"/>
		<path fill="#71619A" d="M270.933,39.686c0,6.454,3.503,9.031,7.725,9.031c2.954,0,4.476-0.592,5.615-1.14l0.505,1.561
			c-0.762,0.421-2.828,1.31-6.374,1.31c-5.826,0-9.456-4.221-9.456-10.174c0-6.752,3.884-10.978,9.118-10.978
			c6.628,0,7.896,6.251,7.896,9.163c0,0.547,0,0.846-0.087,1.227H270.933z M283.848,38.08c0.047-2.831-1.136-7.093-6.036-7.093
			c-4.473,0-6.415,3.965-6.792,7.093H283.848z"/>
		<path fill="#71619A" d="M303.724,45.214c0,1.604,0.04,3.249,0.294,4.81h-1.858l-0.294-2.911h-0.084
			c-1.014,1.561-3.249,3.376-6.502,3.376c-4.094,0-5.949-2.867-5.949-5.569c0-4.687,4.091-7.513,12.367-7.433v-0.548
			c0-1.985-0.381-5.994-5.194-5.95c-1.771,0-3.63,0.461-5.106,1.518l-0.633-1.477c1.855-1.224,4.135-1.732,5.953-1.732
			c5.869,0,7.007,4.392,7.007,7.982V45.214z M301.697,39.177c-4.432-0.127-10.259,0.548-10.259,5.401
			c0,2.915,1.942,4.226,4.052,4.226c3.379,0,5.318-2.073,5.997-4.055c0.166-0.424,0.21-0.886,0.21-1.227V39.177z"/>
		<path fill="#71619A" d="M313.042,25.289v4.476h5.786v1.644h-5.786v13.169c0,2.574,0.802,4.179,2.955,4.179
			c1.056,0,1.818-0.127,2.323-0.294l0.254,1.517c-0.678,0.299-1.601,0.509-2.828,0.509c-1.477,0-2.704-0.465-3.459-1.435
			c-0.93-1.06-1.271-2.783-1.271-4.856V31.409h-3.415v-1.644h3.415v-3.717L313.042,25.289z"/>
		<path fill="#71619A" d="M325.914,23.978c0,0.933-0.635,1.735-1.688,1.735c-0.929,0-1.564-0.802-1.564-1.735
			c0-0.925,0.719-1.771,1.645-1.771C325.235,22.207,325.914,23.006,325.914,23.978z M323.298,50.023V29.765h2.024v20.259H323.298z"
			/>
		<path fill="#71619A" d="M331.48,29.765l4.729,12.578c0.803,1.982,1.435,3.713,1.985,5.404h0.084
			c0.549-1.691,1.307-3.463,2.065-5.404l4.813-12.578h2.112l-8.232,20.259h-1.774l-7.936-20.259H331.48z"/>
		<path fill="#71619A" d="M351.188,39.686c0,6.454,3.503,9.031,7.725,9.031c2.951,0,4.473-0.592,5.612-1.14l0.509,1.561
			c-0.763,0.421-2.828,1.31-6.375,1.31c-5.826,0-9.456-4.221-9.456-10.174c0-6.752,3.884-10.978,9.118-10.978
			c6.626,0,7.896,6.251,7.896,9.163c0,0.547,0,0.846-0.087,1.227H351.188z M364.104,38.08c0.039-2.831-1.14-7.093-6.036-7.093
			c-4.474,0-6.415,3.965-6.797,7.093H364.104z"/>
		<path fill="#71619A" d="M374.412,22.257h0.828V33.17h5.161v0.686h-5.989V22.257z"/>
		<path fill="#71619A" d="M383.196,23.771v1.825h2.356v0.671h-2.356v5.369c0,1.049,0.328,1.705,1.203,1.705
			c0.428,0,0.742-0.05,0.946-0.121l0.104,0.622c-0.274,0.121-0.655,0.205-1.149,0.205c-0.609,0-1.104-0.19-1.414-0.585
			c-0.378-0.428-0.519-1.137-0.519-1.979v-5.215h-1.391v-0.671h1.391v-1.514L383.196,23.771z"/>
		<path fill="#71619A" d="M393.868,21.639V31.93c0,0.622,0.018,1.344,0.07,1.926h-0.741l-0.067-1.565h-0.033
			c-0.435,0.913-1.414,1.755-2.948,1.755c-2.045,0-3.56-1.702-3.56-4.165c-0.018-2.751,1.688-4.476,3.717-4.476
			c1.428,0,2.343,0.743,2.704,1.464h0.033v-5.231H393.868z M393.043,28.869c0-0.228-0.02-0.535-0.087-0.762
			c-0.273-1.1-1.257-2.012-2.597-2.012c-1.809,0-2.945,1.568-2.945,3.704c0,1.858,0.929,3.563,2.892,3.563
			c1.187,0,2.303-0.795,2.65-2.153c0.067-0.224,0.087-0.434,0.087-0.688V28.869z"/>
		<path fill="#71619A" d="M395.991,33.274c0-0.448,0.287-0.775,0.702-0.775s0.688,0.327,0.688,0.775
			c0,0.411-0.273,0.772-0.723,0.772C396.266,34.046,395.971,33.685,395.991,33.274z"/>
	</g>
</g>
</svg>
